<svg width="134" height="44" viewBox="0 0 134 44" fill="none" xmlns="http://www.w3.org/2000/svg">
<g clip-path="url(#clip0)">
<path d="M31.3976 12.15L28.7452 19.4668L26.28 28.3431C24.7709 33.398 22.2599 35.2 17.6412 35.1916C13.6668 35.1875 11.1974 33.5401 8.85687 29.8232L1.72301 17.6983C1.19919 16.6446 1.50267 15.6161 2.3757 15.1395C3.24872 14.667 4.31714 14.7966 5.0696 15.8586C5.30657 16.1931 6.46229 17.7317 7.73857 19.4668L7.74272 19.471C8.28317 20.2529 9.02316 21.2354 9.93776 22.473L12.6774 26.47L14.9639 30.0783C15.1759 30.4629 15.6083 30.6511 15.9616 30.4336C16.3025 30.2246 16.4106 29.8943 16.1778 29.426L14.6729 26.2443C14.5856 26.0645 14.8184 25.9056 14.9514 26.0561L18.5599 30.7681C18.8676 31.1151 19.4953 31.32 19.8653 30.9897C20.2353 30.6594 20.1813 30.0908 19.8861 29.6978L16.843 25.3579C16.7307 25.2115 16.9386 25.0318 17.0675 25.1614L21.312 29.6392C21.6197 29.9863 22.2349 30.1368 22.6049 29.8065C22.9749 29.4762 22.9209 28.895 22.6008 28.5229L18.0818 23.56C17.9737 23.4346 18.1317 23.2548 18.2689 23.351L22.1019 26.2903C22.5717 26.6206 23.1579 26.6749 23.4738 26.2903C23.8272 25.8638 23.5362 25.2617 23.1412 24.9398L17.6162 20.257C16.7349 19.563 17.055 18.7979 18.1484 18.8271C19.541 18.8689 21.1042 18.8898 21.3702 18.8982C21.998 18.9233 22.3638 18.5512 22.4428 18.0745C22.5218 17.5979 22.2183 17.1756 21.6612 17.0627L14.9265 16.2056C14.0992 16.1262 13.1389 16.0259 12.1619 15.9673L12.5444 5.02141C12.561 3.96361 13.2303 3.01034 14.3694 3.04379C15.3921 3.07305 16.1446 3.93016 16.2028 5.11757L16.3649 14.3493C16.3774 14.6963 16.8721 14.7339 16.9386 14.3911L19.0131 1.49263C19.2085 0.497547 20.1646 -0.158873 21.1665 0.0292727C22.1726 0.217419 22.8253 1.22923 22.6507 2.17414L21.0169 13.8977C20.967 14.2782 21.5157 14.3869 21.6155 14.019L24.3926 4.43607C24.6545 3.45353 25.5524 2.83892 26.5543 3.02706C27.5604 3.21521 28.1715 4.32318 27.9969 5.26391L25.2032 16.2642C25.1326 16.6655 25.6855 16.8495 25.8642 16.4816L28.6163 11.0463C29.082 10.0721 29.8344 9.83376 30.6035 10.1264C31.3892 10.4316 31.7551 11.3138 31.3976 12.15Z" fill="#F6AD32"/>
</g>
<path d="M43.466 29H47.47L49.978 19.914L52.486 29H56.49L60.736 13.6H57.04L54.378 24.38L51.408 13.6H48.548L45.578 24.38L42.916 13.6H39.22L43.466 29ZM63.8045 24.82H71.6145C71.7025 24.402 71.7465 23.962 71.7465 23.5C71.7465 20.178 69.3705 17.692 66.1585 17.692C62.6825 17.692 60.3065 20.222 60.3065 23.5C60.3065 26.778 62.6385 29.308 66.4005 29.308C68.4905 29.308 70.1185 28.538 71.1965 27.042L68.5565 25.524C68.1165 26.008 67.3465 26.36 66.4445 26.36C65.2345 26.36 64.2225 25.964 63.8045 24.82ZM63.7385 22.356C64.0465 21.234 64.8825 20.618 66.1365 20.618C67.1265 20.618 68.1165 21.08 68.4685 22.356H63.7385ZM81.0762 29.308C83.8922 29.308 86.3562 27.922 87.6762 25.744L84.6402 23.984C83.9802 25.172 82.6382 25.876 81.0762 25.876C78.3482 25.876 76.5882 24.05 76.5882 21.3C76.5882 18.55 78.3482 16.724 81.0762 16.724C82.6382 16.724 83.9582 17.428 84.6402 18.616L87.6762 16.856C86.3342 14.678 83.8702 13.292 81.0762 13.292C76.4342 13.292 73.0682 16.768 73.0682 21.3C73.0682 25.832 76.4342 29.308 81.0762 29.308ZM97.3093 18V19.034C96.5833 18.198 95.5053 17.692 94.0313 17.692C91.1493 17.692 88.7733 20.222 88.7733 23.5C88.7733 26.778 91.1493 29.308 94.0313 29.308C95.5053 29.308 96.5833 28.802 97.3093 27.966V29H100.609V18H97.3093ZM94.6913 26.184C93.1733 26.184 92.0733 25.15 92.0733 23.5C92.0733 21.85 93.1733 20.816 94.6913 20.816C96.2093 20.816 97.3093 21.85 97.3093 23.5C97.3093 25.15 96.2093 26.184 94.6913 26.184ZM106.33 19.958V18H103.03V29H106.33V24.028C106.33 21.85 108.266 21.3 109.63 21.52V17.78C108.244 17.78 106.77 18.484 106.33 19.958ZM113.799 24.82H121.609C121.697 24.402 121.741 23.962 121.741 23.5C121.741 20.178 119.365 17.692 116.153 17.692C112.677 17.692 110.301 20.222 110.301 23.5C110.301 26.778 112.633 29.308 116.395 29.308C118.485 29.308 120.113 28.538 121.191 27.042L118.551 25.524C118.111 26.008 117.341 26.36 116.439 26.36C115.229 26.36 114.217 25.964 113.799 24.82ZM113.733 22.356C114.041 21.234 114.877 20.618 116.131 20.618C117.121 20.618 118.111 21.08 118.463 22.356H113.733Z" fill="#020517"/>
<defs>
<clipPath id="clip0">
<rect width="35" height="44" fill="white"/>
</clipPath>
</defs>
</svg>
